<svg width="76" height="42" viewBox="0 0 76 42" fill="none" xmlns="http://www.w3.org/2000/svg">
<path d="M2.964 37.172C4.18 37.172 4.788 36.756 4.788 35.924C4.788 35.668 4.732 35.452 4.62 35.276C4.516 35.092 4.372 34.936 4.188 34.808C4.004 34.672 3.792 34.556 3.552 34.46C3.32 34.364 3.072 34.268 2.808 34.172C2.504 34.068 2.216 33.952 1.944 33.824C1.672 33.688 1.436 33.532 1.236 33.356C1.036 33.172 0.876 32.956 0.756 32.708C0.644 32.46 0.588 32.16 0.588 31.808C0.588 31.08 0.836 30.512 1.332 30.104C1.828 29.696 2.512 29.492 3.384 29.492C3.888 29.492 4.344 29.548 4.752 29.66C5.168 29.764 5.472 29.88 5.664 30.008L5.292 30.956C5.124 30.852 4.872 30.752 4.536 30.656C4.208 30.552 3.824 30.5 3.384 30.5C3.16 30.5 2.952 30.524 2.76 30.572C2.568 30.62 2.4 30.692 2.256 30.788C2.112 30.884 1.996 31.008 1.908 31.16C1.828 31.304 1.788 31.476 1.788 31.676C1.788 31.9 1.832 32.088 1.92 32.24C2.008 32.392 2.132 32.528 2.292 32.648C2.452 32.76 2.636 32.864 2.844 32.96C3.06 33.056 3.296 33.152 3.552 33.248C3.912 33.392 4.24 33.536 4.536 33.68C4.84 33.824 5.1 33.996 5.316 34.196C5.54 34.396 5.712 34.636 5.832 34.916C5.952 35.188 6.012 35.52 6.012 35.912C6.012 36.64 5.744 37.2 5.208 37.592C4.68 37.984 3.932 38.18 2.964 38.18C2.636 38.18 2.332 38.156 2.052 38.108C1.78 38.068 1.536 38.02 1.32 37.964C1.104 37.9 0.916 37.836 0.756 37.772C0.604 37.7 0.484 37.64 0.396 37.592L0.744 36.632C0.928 36.736 1.208 36.852 1.584 36.98C1.96 37.108 2.42 37.172 2.964 37.172ZM26.3907 29.684H27.5547V38H26.3907V34.16H22.3227V38H21.1587V29.684H22.3227V33.152H26.3907V29.684ZM43.0237 33.836C43.0237 33.124 43.1277 32.496 43.3357 31.952C43.5517 31.408 43.8397 30.956 44.1997 30.596C44.5677 30.228 44.9917 29.952 45.4717 29.768C45.9597 29.584 46.4757 29.492 47.0197 29.492C47.5557 29.492 48.0597 29.584 48.5317 29.768C49.0117 29.952 49.4317 30.228 49.7917 30.596C50.1517 30.956 50.4357 31.408 50.6437 31.952C50.8597 32.496 50.9677 33.124 50.9677 33.836C50.9677 34.548 50.8597 35.176 50.6437 35.72C50.4357 36.264 50.1517 36.72 49.7917 37.088C49.4317 37.448 49.0117 37.72 48.5317 37.904C48.0597 38.088 47.5557 38.18 47.0197 38.18C46.4757 38.18 45.9597 38.088 45.4717 37.904C44.9917 37.72 44.5677 37.448 44.1997 37.088C43.8397 36.72 43.5517 36.264 43.3357 35.72C43.1277 35.176 43.0237 34.548 43.0237 33.836ZM44.2477 33.836C44.2477 34.34 44.3117 34.8 44.4397 35.216C44.5677 35.624 44.7477 35.972 44.9797 36.26C45.2197 36.548 45.5077 36.772 45.8437 36.932C46.1877 37.084 46.5717 37.16 46.9957 37.16C47.4197 37.16 47.7997 37.084 48.1357 36.932C48.4717 36.772 48.7557 36.548 48.9877 36.26C49.2277 35.972 49.4117 35.624 49.5397 35.216C49.6677 34.8 49.7317 34.34 49.7317 33.836C49.7317 33.332 49.6677 32.876 49.5397 32.468C49.4117 32.052 49.2277 31.7 48.9877 31.412C48.7557 31.124 48.4717 30.904 48.1357 30.752C47.7997 30.592 47.4197 30.512 46.9957 30.512C46.5717 30.512 46.1877 30.592 45.8437 30.752C45.5077 30.904 45.2197 31.124 44.9797 31.412C44.7477 31.7 44.5677 32.052 44.4397 32.468C44.3117 32.876 44.2477 33.332 44.2477 33.836ZM68.6475 29.6C69.8155 29.6 70.7115 29.824 71.3355 30.272C71.9675 30.712 72.2835 31.372 72.2835 32.252C72.2835 32.732 72.1955 33.144 72.0195 33.488C71.8515 33.824 71.6035 34.1 71.2755 34.316C70.9555 34.524 70.5635 34.676 70.0995 34.772C69.6355 34.868 69.1115 34.916 68.5275 34.916H67.6035V38H66.4395V29.804C66.7675 29.724 67.1315 29.672 67.5315 29.648C67.9395 29.616 68.3115 29.6 68.6475 29.6ZM68.7435 30.62C68.2475 30.62 67.8675 30.632 67.6035 30.656V33.92H68.4795C68.8795 33.92 69.2395 33.896 69.5595 33.848C69.8795 33.792 70.1475 33.704 70.3635 33.584C70.5875 33.456 70.7595 33.284 70.8795 33.068C70.9995 32.852 71.0595 32.576 71.0595 32.24C71.0595 31.92 70.9955 31.656 70.8675 31.448C70.7475 31.24 70.5795 31.076 70.3635 30.956C70.1555 30.828 69.9115 30.74 69.6315 30.692C69.3515 30.644 69.0555 30.62 68.7435 30.62Z" fill="white"/>
<path d="M7.92 21.28C5.66667 21.28 3.94667 20.6533 2.76 19.4C1.58667 18.1467 1 16.3667 1 14.06C1 12.9133 1.18 11.8933 1.54 11C1.9 10.0933 2.39333 9.33333 3.02 8.72C3.64667 8.09333 4.39333 7.62 5.26 7.3C6.12667 6.98 7.06667 6.82 8.08 6.82C8.66667 6.82 9.2 6.86667 9.68 6.96C10.16 7.04 10.58 7.14 10.94 7.26C11.3 7.36667 11.6 7.48 11.84 7.6C12.08 7.72 12.2533 7.81333 12.36 7.88L11.46 10.4C11.0333 10.1733 10.5333 9.98 9.96 9.82C9.4 9.66 8.76 9.58 8.04 9.58C7.56 9.58 7.08667 9.66 6.62 9.82C6.16667 9.98 5.76 10.24 5.4 10.6C5.05333 10.9467 4.77333 11.4 4.56 11.96C4.34667 12.52 4.24 13.2 4.24 14C4.24 14.64 4.30667 15.24 4.44 15.8C4.58667 16.3467 4.81333 16.82 5.12 17.22C5.44 17.62 5.85333 17.94 6.36 18.18C6.86667 18.4067 7.48 18.52 8.2 18.52C8.65333 18.52 9.06 18.4933 9.42 18.44C9.78 18.3867 10.1 18.3267 10.38 18.26C10.66 18.18 10.9067 18.0933 11.12 18C11.3333 17.9067 11.5267 17.82 11.7 17.74L12.56 20.24C12.12 20.5067 11.5 20.7467 10.7 20.96C9.9 21.1733 8.97333 21.28 7.92 21.28ZM16.6809 14.06C16.6809 14.74 16.7609 15.3533 16.9209 15.9C17.0943 16.4467 17.3343 16.92 17.6409 17.32C17.9609 17.7067 18.3476 18.0067 18.8009 18.22C19.2543 18.4333 19.7743 18.54 20.3609 18.54C20.9343 18.54 21.4476 18.4333 21.9009 18.22C22.3676 18.0067 22.7543 17.7067 23.0609 17.32C23.3809 16.92 23.6209 16.4467 23.7809 15.9C23.9543 15.3533 24.0409 14.74 24.0409 14.06C24.0409 13.38 23.9543 12.7667 23.7809 12.22C23.6209 11.66 23.3809 11.1867 23.0609 10.8C22.7543 10.4 22.3676 10.0933 21.9009 9.88C21.4476 9.66667 20.9343 9.56 20.3609 9.56C19.7743 9.56 19.2543 9.67333 18.8009 9.9C18.3476 10.1133 17.9609 10.42 17.6409 10.82C17.3343 11.2067 17.0943 11.68 16.9209 12.24C16.7609 12.7867 16.6809 13.3933 16.6809 14.06ZM27.2609 14.06C27.2609 15.2467 27.0809 16.2933 26.7209 17.2C26.3743 18.0933 25.8943 18.8467 25.2809 19.46C24.6676 20.06 23.9343 20.5133 23.0809 20.82C22.2409 21.1267 21.3343 21.28 20.3609 21.28C19.4143 21.28 18.5209 21.1267 17.6809 20.82C16.8409 20.5133 16.1076 20.06 15.4809 19.46C14.8543 18.8467 14.3609 18.0933 14.0009 17.2C13.6409 16.2933 13.4609 15.2467 13.4609 14.06C13.4609 12.8733 13.6476 11.8333 14.0209 10.94C14.3943 10.0333 14.8943 9.27333 15.5209 8.66C16.1609 8.04667 16.8943 7.58667 17.7209 7.28C18.5609 6.97333 19.4409 6.82 20.3609 6.82C21.3076 6.82 22.2009 6.97333 23.0409 7.28C23.8809 7.58667 24.6143 8.04667 25.2409 8.66C25.8676 9.27333 26.3609 10.0333 26.7209 10.94C27.0809 11.8333 27.2609 12.8733 27.2609 14.06ZM29.8617 21V7.14H39.1417V9.76H32.9817V12.66H38.4617V15.28H32.9817V21H29.8617ZM41.3461 21V7.14H50.6261V9.76H44.4661V12.66H49.9461V15.28H44.4661V21H41.3461ZM52.8305 21V7.14H62.1905V9.76H55.9505V12.48H61.4905V15.04H55.9505V18.38H62.6505V21H52.8305ZM64.9594 21V7.14H74.3194V9.76H68.0794V12.48H73.6194V15.04H68.0794V18.38H74.7794V21H64.9594Z" fill="white"/>
</svg>
